# AST/ASF file generated using VICON BodyLanguage
# -----------------------------------------------
:version 1.10
:name VICON
:units
  mass 1.0
  length 0.45
  angle deg
:documentation
   .ast/.asf automatically generated from VICON data using
   VICON BodyBuilder and BodyLanguage model FoxedUp or BRILLIANT.MOD
:root
   order TX TY TZ RX RY RZ
   axis XYZ
   position 0 0 0  
   orientation 0 0 0 
:bonedata
  begin
     id 1 
     name lhipjoint
     direction 0.573633 -0.743009 0.344793 
     length 2.46257 
     axis 0 0 0  XYZ
  end
  begin
     id 2 
     name lfemur
     direction 0.34202 -0.939693 0  
     length 7.3842  
     axis 0 0 20  XYZ
    dof rx ry rz
    limits (-160.0 20.0)
           (-70.0 70.0)
           (-60.0 70.0)
  end
  begin
     id 3 
     name ltibia
     direction 0.34202 -0.939693 0   
     length 7.50407   
     axis 0 0 20   XYZ
    dof rx
    limits (-10.0 170.0)
  end
  begin
     id 4 
     name lfoot
     direction 0.110749 -0.304281 0.946123   
     length 1.95925   
     axis -90 7.62852e-016 20   XYZ
    dof rx rz
    limits (-45.0 90.0)
           (-70.0 20.0)
  end
  begin
     id 5 
     name ltoes
     direction 1.53554e-011 -4.21843e-011 1   
     length 0.978318   
     axis -90 7.62852e-016 20   XYZ
    dof rx
    limits (-90.0 20.0)
  end
  begin
     id 6 
     name rhipjoint
     direction -0.488109 -0.791693 0.367385   
     length 2.31113  
     axis 0 0 0  XYZ 
  end
  begin
     id 7 
     name rfemur
     direction -0.34202 -0.939693 0   
     length 7.40965   
     axis 0 0 -20   XYZ
    dof rx ry rz
    limits (-160.0 20.0)
           (-70.0 70.0)
           (-70.0 60.0)
  end
  begin
     id 8 
     name rtibia
     direction -0.34202 -0.939693 0   
     length 7.55548   
     axis 0 0 -20   XYZ
    dof rx
    limits (-10.0 170.0)
 end
 begin
     id 9 
     name rfoot
     direction -0.127594 -0.350561 0.927808   
     length 2.07199  
     axis -90 -7.62852e-016 -20   XYZ
    dof rx rz
    limits (-45.0 90.0)
           (-20.0 70.0)
  end
  begin
     id 10 
     name rtoes
     direction -1.53542e-011 -4.21909e-011 1   
     length 1.02667   
     axis -90 -7.62852e-016 -20   XYZ
    dof rx
    limits (-90.0 20.0)
  end
  begin
     id 11 
     name lowerback
     direction -0.0103342 0.997298 -0.0727278   
     length 2.02836   
     axis 0 0 0   XYZ
    dof rx ry rz
    limits (-20.0 45.0)
           (-30.0 30.0)
           (-30.0 30.0)
  end
  begin
     id 12 
     name upperback
     direction 0.0171146 0.999786 -0.011606   
     length 2.03179   
     axis 0 0 0   XYZ
    dof rx ry rz
    limits (-20.0 45.0)
           (-30.0 30.0)
           (-30.0 30.0)
  end
  begin
     id 13 
     name thorax
     direction 0.0216927 0.999513 0.0224343   
     length 2.03882   
     axis 0 0 0   XYZ
    dof rx ry rz
    limits (-20.0 45.0)
           (-30.0 30.0)
           (-30.0 30.0)
  end
  begin
     id 14 
     name lowerneck
     direction 0.000989287 0.993907 0.110221   
     length 1.75428   
     axis 0 0 0   XYZ
    dof rx ry rz
    limits (-20.0 45.0)
           (-30.0 30.0)
           (-30.0 30.0)
  end
  begin
     id 15 
     name upperneck
     direction -0.0172474 0.994813 -0.100253   
     length 1.77058   
     axis 0 0 0   XYZ
    dof rx ry rz
    limits (-20.0 45.0)
           (-30.0 30.0)
           (-30.0 30.0)
  end
  begin
     id 16
     name head
     direction -0.00486455 0.99894 -0.0457663  
     length 1.77427  
     axis 0 0 0   XYZ
    dof rx ry rz
    limits (-20.0 45.0)
           (-30.0 30.0)
           (-30.0 30.0)
  end
  begin
     id 17 
     name lclavicle
     direction 0.927314 0.333734 -0.169441  
     length 3.97584  
     axis 0 0 0   XYZ
    dof ry rz
    limits (-20.0 10.0)
           (0.0 20.0)
  end
  begin
     id 18 
     name lhumerus
     direction 1 -4.48965e-011 -3.25313e-028   
     length 4.76468   
     axis 180 -30 -90   XYZ
    dof rx ry rz
    limits (-60.0 90.0)
           (-90.0 90.0)
           (-90.0 90.0)
  end
  begin
     id 19
     name lradius
     direction 1 -4.48969e-011 -2.8465e-028   
     length 3.52712   
     axis -180 -30 -90   XYZ
    dof rx
    limits (-10.0 170.0)
  end
  begin
     id 20
     name lwrist
     direction 1 -4.4896e-011 -7.78665e-028   
     length 1.76356   
     axis 1.91374e-015 90 90   XYZ
    dof ry
    limits (-180.0 0.0)
 end
  begin
     id 21 
     name lhand
     direction 1 -4.48959e-011 -1.55733e-027   
     length 0.859564   
     axis 9.9371e-016 90 90   XYZ
    dof rx rz
    limits (-90.0 90.0)
           (-45.0 45.0)
  end
  begin
     id 22 
     name lfingers
     direction 1 -4.48965e-011 -3.11466e-027   
     length 0.693002   
     axis 1.98742e-015 90 90   XYZ
    dof rx
    limits (0.0 90.0)
  end
  begin
     id 23
     name lthumb
     direction 0.707107 -6.34948e-011 0.707107   
     length 0.995017   
     axis -90 45 2.85299e-015   XYZ
    dof rx rz
    limits (-45.0 45.0)
           (-45.0 45.0)
  end
  begin
     id 24 
     name rclavicle
     direction -0.899388 0.348209 -0.264294   
     length 3.68366  
     axis 0 0 0   XYZ 
    dof ry rz
    limits (-10.0 20.0)
           (-20.0 0.0)
  end
  begin
     id 25 
     name rhumerus
     direction -1 -4.48965e-011 -3.01536e-027  
     length 4.90577   
     axis 180 30 90   XYZ
    dof rx ry rz
    limits (-90.0 60.0)
           (-90.0 90.0)
           (-90.0 90.0)
  end
  begin
     id 26 
     name rradius
     direction -1 -4.48966e-011 3.93291e-027   
     length 3.42692   
     axis -180 30 90   XYZ
    dof rx
    limits (-10.0 170.0)
  end
  begin
     id 27 
     name rwrist
     direction -1 -4.48969e-011 -7.78665e-028   
     length 1.71346   
     axis 1.91374e-015 -90 -90   XYZ
    dof ry
    limits (-180.0 0.0)
  end
  begin
     id 28
     name rhand
     direction -1 -4.48967e-011 -1.55733e-027   
     length 0.740957   
     axis 9.9371e-016 -90 -90   XYZ
    dof rx rz
    limits (-90.0 90.0)
           (-45.0 45.0)
  end
  begin
     id 29
     name rfingers
     direction -1 -4.48949e-011 -3.11466e-027   
     length 0.597378   
     axis 1.98742e-015 -90 -90   XYZ
    dof rx
    limits (0.0 90.0)
  end
  begin
     id 30
     name rthumb
     direction -0.707107 -6.34931e-011 0.707107   
     length 0.857719   
     axis -90 -45 -2.85299e-015   XYZ
    dof rx rz
    limits (-45.0 45.0)
           (-45.0 45.0)
  end
:hierarchy
  begin
    root lhipjoint rhipjoint lowerback
    lhipjoint lfemur
    lfemur ltibia
    ltibia lfoot
    lfoot ltoes
    rhipjoint rfemur
    rfemur rtibia
    rtibia rfoot
    rfoot rtoes
    lowerback upperback
    upperback thorax
    thorax lowerneck lclavicle rclavicle
    lowerneck upperneck
    upperneck head
    lclavicle lhumerus
    lhumerus lradius
    lradius lwrist
    lwrist lhand lthumb
    lhand lfingers
    rclavicle rhumerus
    rhumerus rradius
    rradius rwrist
    rwrist rhand rthumb
    rhand rfingers
  end

#!OML:ASF I:\AllaLogoMonkeySwing\Project 1\Capture day 1\Session 1\Subject1.ASF
:FULLY-SPECIFIED
:DEGREES
16
root -4.37181 17.9402 -19.3082 17.6857 -0.055896 3.36149
lowerback 29.9114 1.1922 -2.64453
upperback 9.3901 1.10108 3.85162
thorax -5.96067 0.473206 5.46849
lowerneck -10.003 -7.12532 -6.83953
upperneck 12.4597 -9.46655 6.61521
head 6.05987 -4.43502 2.38639
rclavicle 7.15625e-015 5.56597e-015
rhumerus 2.74816 1.3725 -82.7622
rradius 24.3581
rwrist 2.64166
rhand -9.80413 -35.6093
rfingers 7.12502
rthumb 16.1723 -64.9547
lclavicle 7.15625e-015 5.56597e-015
lhumerus -28.7879 -16.7808 106.278
lradius 64.2924
lwrist 7.10498
lhand -15.7988 -21.4791
lfingers 7.12502
lthumb 10.3943 8.24398
rfemur -38.73 0.978705 14.4447
rtibia 31.9663
rfoot -9.51931 -4.25265
rtoes 10.7412
lfemur -30.7483 4.23825 -30.1535
ltibia 19.2797
lfoot -10.0335 -7.49568
ltoes -22.787
17
root -4.36165 17.9184 -19.4104 19.0192 -0.343572 3.44688
lowerback 30.995 1.33212 -2.28928
upperback 9.76563 1.37283 4.04331
thorax -6.06545 0.593832 5.39267
lowerneck -10.4331 -6.8581 -6.45551
upperneck 13.6741 -9.09892 5.98516
head 6.44399 -4.25841 2.13893
rclavicle -1.11319e-014 -3.10104e-014
rhumerus 5.23188 1.2111 -82.4295
rradius 23.1524
rwrist 3.39192
rhand -9.97387 -35.8871
rfingers 7.12502
rthumb 16.0088 -65.2457
lclavicle -1.11319e-014 -3.10104e-014
lhumerus -28.5996 -18.1786 106.942
lradius 65.5549
lwrist 7.31582
lhand -15.3703 -21.8823
lfingers 7.12502
lthumb 10.8076 7.8196
rfemur -40.7135 0.830573 14.2398
rtibia 32.1214
rfoot -9.58082 -3.90186
rtoes 13.1668
lfemur -32.8822 3.98265 -30.4319
ltibia 19.7605
lfoot -9.83095 -7.42721
ltoes -22.7872
18
root -4.35312 17.8953 -19.5017 20.249 -0.607264 3.47145
lowerback 32.5049 1.45103 -1.76811
upperback 9.81147 1.65184 4.37271
thorax -6.15395 0.692259 4.97734
lowerneck -10.7274 -6.63522 -6.22639
upperneck 14.4763 -8.78844 5.60297
head 6.70238 -4.10905 1.99708
rclavicle 1.59028e-015 2.22639e-014
rhumerus 8.03672 -0.963975 -82.7645
rradius 21.3167
rwrist 5.61334
rhand -9.99907 -35.6077
rfingers 7.12502
rthumb 15.9845 -64.9682
lclavicle 1.59028e-015 2.22639e-014
lhumerus -28.3984 -19.3745 107.48
lradius 66.7044
lwrist 7.58154
lhand -14.8347 -22.3508
lfingers 7.12502
lthumb 11.3242 7.32348
rfemur -42.5573 0.785158 14.1027
rtibia 32.2859
rfoot -9.51542 -3.73626
rtoes 14.1074
lfemur -34.8868 3.80291 -30.6265
ltibia 20.2833
lfoot -9.66862 -7.3923
ltoes -22.6011
19
root -4.34721 17.8717 -19.5921 21.6924 -0.802162 3.50339
lowerback 33.5391 1.91686 -0.395979
upperback 10.0362 2.61609 4.09994
thorax -6.31172 1.15419 3.60421
lowerneck -10.7083 -7.03434 -4.78681
upperneck 14.7208 -9.51602 5.24091
head 6.73279 -4.4007 1.57927
rclavicle -1.59028e-014 -1.19271e-014
rhumerus 10.5912 -6.95208 -83.8681
rradius 19.4195
rwrist 9.33091
rhand -10.0643 -34.8579
rfingers 7.12502
rthumb 15.9218 -64.2235
lclavicle -1.59028e-014 -1.19271e-014
lhumerus -28.921 -22.8001 108.134
lradius 67.869
lwrist 7.82915
lhand -14.7307 -22.429
lfingers 7.12502
lthumb 11.4245 7.23974
rfemur -44.6948 0.64122 14.0102
rtibia 32.4939
rfoot -9.12843 -3.54107
rtoes 13.9087
lfemur -37.1586 3.8532 -30.9642
ltibia 20.839
lfoot -9.58467 -7.75619
ltoes -22.614
20
root -4.34021 17.8447 -19.675 23.1772 -1.1491 3.70022
lowerback 34.3764 2.02974 -0.0563384
upperback 10.3522 2.86949 4.29765
thorax -6.28918 1.26156 3.53106
lowerneck -10.9068 -6.96676 -5.23814
upperneck 14.9548 -9.31855 5.09006
head 6.84643 -4.33325 1.6133
rclavicle 4.29375e-014 3.02153e-014
rhumerus 13.4487 -10.0518 -84.7974
rradius 17.8236
rwrist 12.4556
rhand -10.4232 -34.523
rfingers 7.12502
rthumb 15.576 -63.9158
lclavicle 4.29375e-014 3.02153e-014
lhumerus -28.953 -23.6304 108.917
lradius 69.1178
lwrist 7.80194
lhand -15.0282 -22.1919
lfingers 7.12502
lthumb 11.1376 7.49255
rfemur -46.9384 0.274206 13.8447
rtibia 32.7833
rfoot -8.5402 -3.00681
rtoes 12.447
lfemur -39.4742 4.04591 -31.6147
ltibia 21.4376
lfoot -9.581 -8.25183
ltoes -22.6534
21
root -4.3328 17.8138 -19.7498 24.4827 -1.45018 3.88485
lowerback 35.3337 1.71536 -0.574706
upperback 10.5331 2.37997 4.97643
thorax -6.46976 1.00384 4.6895
lowerneck -10.3082 -6.431 -6.64912
upperneck 14.6898 -8.29884 4.66768
head 6.64636 -3.96934 1.82771
rclavicle 1.27222e-014 2.38542e-014
rhumerus 15.9942 -10.254 -85.5302
rradius 16.4141
rwrist 14.8623
rhand -10.7766 -34.4537
rfingers 7.12502
rthumb 15.2357 -63.8726
lclavicle 1.27222e-014 2.38542e-014
lhumerus -28.8303 -21.6909 109.821
lradius 70.2501
lwrist 7.44663
lhand -15.6604 -22.5653
lfingers 7.12502
lthumb 10.5278 7.15106
rfemur -48.9777 -0.0504792 13.6977
rtibia 33.1454
rfoot -7.92579 -2.46858
rtoes 9.66608
lfemur -41.5782 4.11065 -32.1768
ltibia 22.0919
lfoot -9.56772 -8.6477
ltoes -22.5614
22
root -4.33901 17.779 -19.82 25.8172 -1.53983 3.87015
lowerback 36.4403 1.82921 0.16423
upperback 10.646 2.77843 5.09671
thorax -6.60746 1.18077 4.28911
lowerneck -10.2344 -6.52767 -6.61064
upperneck 14.4241 -8.41901 4.62274
head 6.55213 -4.02938 1.80024
rclavicle -6.36111e-015 -2.38542e-015
rhumerus 18.4428 -13.4793 -86.7708
rradius 15.3385
rwrist 17.3991
rhand -10.9936 -34.3665
rfingers 7.12502
rthumb 15.0267 -63.8012
lclavicle -6.36111e-015 -2.38542e-015
lhumerus -29.1257 -22.9246 110.466
lradius 70.9672
lwrist 6.20825
lhand -17.6175 -24.434
lfingers 7.12502
lthumb 8.6395 5.36919
rfemur -51.0237 -0.0230739 13.6402
rtibia 33.6111
rfoot -7.57776 -2.38287
rtoes 8.0087
lfemur -43.7456 4.24195 -32.4969
ltibia 22.8111
lfoot -9.55616 -9.21936
ltoes -22.1009
23
root -4.35848 17.7445 -19.8802 27.0568 -1.87197 3.84483
lowerback 37.4602 2.09109 0.50158
upperback 10.8973 3.22111 5.22643
thorax -6.70362 1.3731 4.07059
lowerneck -10.3103 -6.54082 -6.78845
upperneck 14.2523 -8.41499 4.75575
head 6.524 -4.02521 1.87033
rclavicle 4.77083e-015 -2.46493e-014
rhumerus 20.8309 -16.2682 -88.1864
rradius 14.4198
rwrist 19.88
rhand -11.265 -34.3197
rfingers 7.12502
rthumb 14.7652 -63.7738
lclavicle 4.77083e-015 -2.46493e-014
lhumerus -29.528 -23.9275 110.987
lradius 71.4258
lwrist 2.67427
lhand -21.9099 -28.2034
lfingers 7.12502
lthumb 4.49579 1.72891
rfemur -52.9642 0.233938 13.5121
rtibia 34.0863
rfoot -7.39257 -2.35241
rtoes 7.57943
lfemur -45.8949 4.7806 -33.0235
ltibia 23.6918
lfoot -9.74187 -9.89254
ltoes -21.6098
24
root -4.36088 17.6972 -19.9392 28.7034 -1.95133 4.07065
lowerback 37.7722 2.11832 1.17816
upperback 11.0687 3.47451 5.16451
thorax -6.58998 1.49214 3.55251
lowerneck -10.1835 -6.63046 -6.45865
upperneck 13.7992 -8.56329 4.65861
head 6.34735 -4.09072 1.78162
rclavicle 2.22639e-014 3.49861e-014
rhumerus 23.1533 -19.434 -90.1058
rradius 13.6605
rwrist 22.896
rhand -11.6489 -34.4327
rfingers 7.12502
rthumb 14.3953 -63.9135
lclavicle 2.22639e-014 3.49861e-014
lhumerus -30.0257 -24.8043 111.243
lradius 72.8921
lwrist 0.945025
lhand -23.4412 -30.3986
lfingers 7.12502
lthumb 3.01704 -0.440173
rfemur -55.3803 -0.108729 13.3053
rtibia 34.6084
rfoot -7.11484 -2.18761
rtoes 7.56808
lfemur -48.5282 4.70097 -33.7423
ltibia 24.7315
lfoot -9.81281 -10.4187
ltoes -20.8827
25
root -4.36941 17.6511 -19.9869 30.1868 -1.99755 3.92882
lowerback 38.2498 2.07732 1.6607
upperback 11.2804 3.61479 5.43568
thorax -6.51482 1.54558 3.53208
lowerneck -10.214 -6.59926 -6.75017
upperneck 13.3153 -8.43474 4.51631
head 6.19846 -4.05732 1.79919
rclavicle -5.24792e-014 -7.07673e-014
rhumerus 25.0398 -21.1697 -91.8216
rradius 13.347
rwrist 25.7882
rhand -11.9839 -34.4086
rfingers 7.12502
rthumb 14.0725 -63.9121
lclavicle -5.24792e-014 -7.07673e-014
lhumerus -30.2024 -24.7595 111.502
lradius 74.551
lwrist -0.169129
lhand -24.7651 -32.1555
lfingers 7.12502
lthumb 1.73845 -2.1828
rfemur -57.5508 -0.161481 13.4457
rtibia 35.0991
rfoot -6.98283 -2.1459
rtoes 7.40548
lfemur -50.9708 4.67435 -33.9484
ltibia 25.7873
lfoot -9.78528 -10.8017
ltoes -20.0008
26
root -4.36031 17.593 -20.0306 31.6478 -1.95723 3.85447
lowerback 38.6152 2.00233 2.60412
upperback 11.4535 3.86086 5.53974
thorax -6.39903 1.6592 3.05771
lowerneck -10.0474 -6.7235 -6.72446
upperneck 12.6204 -8.57396 4.37316
head 5.9509 -4.14008 1.75002
rclavicle -4.6118e-014 -6.83819e-014
rhumerus 26.7054 -23.6662 -93.7754
rradius 13.3307
rwrist 29.1397
rhand -12.2728 -34.0644
rfingers 7.12502
rthumb 13.7941 -63.5871
lclavicle -4.6118e-014 -6.83819e-014
lhumerus -30.654 -25.485 111.774
lradius 76.3959
lwrist -0.169539
lhand -25.6288 -33.2979
lfingers 7.12502
lthumb 0.904283 -3.32009
rfemur -59.7935 -0.559762 13.6729
rtibia 35.7903
rfoot -7.14263 -1.78304
rtoes 6.58675
lfemur -53.353 4.37238 -34.1468
ltibia 26.8472
lfoot -9.78139 -11.0581
ltoes -19.5459
27
root -4.40994 17.5658 -20.0538 32.3436 -2.7872 3.83844
lowerback 39.7554 2.75637 2.10969
upperback 11.7403 4.60218 5.66011
thorax -6.52843 1.97432 3.13814
lowerneck -9.77013 -6.85191 -6.51169
upperneck 11.8519 -8.7692 4.33956
head 5.6619 -4.23586 1.70695
rclavicle -4.77083e-014 -2.70347e-014
rhumerus 29.102 -26.2728 -96.2416
rradius 12.912
rwrist 32.6312
rhand -12.4868 -33.6936
rfingers 7.12502
rthumb 13.5878 -63.2302
lclavicle -4.77083e-014 -2.70347e-014
lhumerus -31.219 -26.459 111.862
lradius 78.3093
lwrist 0.33008
lhand -26.3231 -34.2949
lfingers 7.12502
lthumb 0.233646 -4.31524
rfemur -61.1958 -0.0104436 13.4801
rtibia 36.5874
rfoot -7.44708 -1.59568
rtoes 5.91348
lfemur -54.931 5.4528 -34.9793
ltibia 27.9455
lfoot -10.1813 -11.8051
ltoes -18.9543
28
root -4.40972 17.4862 -20.105 34.2865 -2.15934 4.52432
lowerback 39.2666 2.27189 3.06865
upperback 11.7584 4.34036 5.50961
thorax -6.25058 1.87936 2.59908
lowerneck -9.52895 -6.8921 -6.07968
upperneck 11.13 -8.86671 4.23007
head 5.37575 -4.28084 1.61526
rclavicle 6.36111e-015 9.14409e-015
rhumerus 32.1102 -26.6498 -97.2253
rradius 11.6938
rwrist 33.5208
rhand -12.3842 -33.4413
rfingers 7.12502
rthumb 13.6868 -62.9712
lclavicle 6.36111e-015 9.14409e-015
lhumerus -31.7042 -27.4419 111.731
lradius 80.061
lwrist 0.998205
lhand -27.0754 -35.3906
lfingers 7.12502
lthumb -0.492866 -5.4114
rfemur -64.0753 -1.12909 13.1834
rtibia 37.6093
rfoot -7.41191 -1.67389
rtoes 5.53029
lfemur -57.7531 4.32214 -35.7862
ltibia 29.0246
lfoot -10.1059 -12.3846
ltoes -18.5741
29
root -4.41432 17.4014 -20.1523 36.2366 -1.52702 5.0506
lowerback 38.6111 1.97828 3.65753
upperback 11.8911 4.19086 5.78907
thorax -5.86825 1.82235 2.66617
lowerneck -9.46325 -6.92592 -6.10562
upperneck 10.4326 -8.86693 3.99241
head 5.13773 -4.30434 1.55847
rclavicle -6.36111e-015 2.14687e-014
rhumerus 34.9113 -26.2382 -97.5554
rradius 10.7598
rwrist 34.3116
rhand -12.3701 -33.2346
rfingers 7.12502
rthumb 13.7004 -62.7636
lclavicle -6.36111e-015 2.14687e-014
lhumerus -31.7229 -27.9119 111.84
lradius 82.4736
lwrist 3.88558
lhand -25.019 -34.3167
lfingers 7.12502
lthumb 1.49317 -4.34218
rfemur -66.9723 -2.15043 13.1332
rtibia 38.6691
rfoot -7.35632 -1.74475
rtoes 4.89714
lfemur -60.5106 3.04683 -36.1508
ltibia 30.0505
lfoot -10.0501 -12.6361
ltoes -18.4714
30
root -4.42508 17.3305 -20.1862 37.7237 -1.32559 5.3983
lowerback 38.373 1.81465 3.87756
upperback 12.1892 4.06149 6.05655
thorax -5.46462 1.76433 2.89711
lowerneck -9.65658 -6.89258 -6.4947
upperneck 9.83718 -8.73354 3.87852
head 4.99042 -4.26436 1.59722
rclavicle -3.18055e-015 -2.42517e-014
rhumerus 37.4125 -25.0062 -97.6242
rradius 10.1677
rwrist 34.539
rhand -12.3585 -33.3575
rfingers 7.12502
rthumb 13.7115 -62.8858
lclavicle -3.18055e-015 -2.42517e-014
lhumerus -31.6147 -28.1173 111.845
lradius 83.8024
lwrist 4.10435
lhand -26.0589 -35.9585
lfingers 7.12502
lthumb 0.488878 -5.97933
rfemur -69.371 -2.82866 13.201
rtibia 39.7477
rfoot -7.44468 -1.56926
rtoes 4.06632
lfemur -62.7218 2.09996 -36.2777
ltibia 31.0329
lfoot -10.0252 -12.4734
ltoes -18.0662
